<?xml version="1.0" encoding="utf-8" standalone="no"?>
<!DOCTYPE svg PUBLIC "-//W3C//DTD SVG 1.1//EN"
  "http://www.w3.org/Graphics/SVG/1.1/DTD/svg11.dtd">
<svg xmlns:xlink="http://www.w3.org/1999/xlink" width="576pt" height="144pt" viewBox="0 0 576 144" xmlns="http://www.w3.org/2000/svg" version="1.1">
 <metadata>
  <rdf:RDF xmlns:dc="http://purl.org/dc/elements/1.1/" xmlns:cc="http://creativecommons.org/ns#" xmlns:rdf="http://www.w3.org/1999/02/22-rdf-syntax-ns#">
   <cc:Work>
    <dc:type rdf:resource="http://purl.org/dc/dcmitype/StillImage"/>
    <dc:date>2024-11-10T11:13:46.973517</dc:date>
    <dc:format>image/svg+xml</dc:format>
    <dc:creator>
     <cc:Agent>
      <dc:title>Matplotlib v3.7.2, https://matplotlib.org/</dc:title>
     </cc:Agent>
    </dc:creator>
   </cc:Work>
  </rdf:RDF>
 </metadata>
 <defs>
  <style type="text/css">*{stroke-linejoin: round; stroke-linecap: butt}</style>
 </defs>
 <g id="figure_1">
  <g id="patch_1">
   <path d="M 0 144 
L 576 144 
L 576 0 
L 0 0 
z
" style="fill: #ffffff"/>
  </g>
  <g id="axes_1">
   <g id="patch_2">
    <path d="M 72 128.16 
L 518.4 128.16 
L 518.4 17.28 
L 72 17.28 
z
" style="fill: #ffffff"/>
   </g>
   <g id="patch_3">
    <path d="M 72.027898 128.16 
L 99.926155 128.16 
L 99.926155 128.16 
L 72.027898 128.16 
z
" clip-path="url(#p0c3ccd1482)" style="fill: #2ca02c; fill-opacity: 0.5; stroke: #000000; stroke-linejoin: miter"/>
   </g>
   <g id="patch_4">
    <path d="M 99.926155 128.16 
L 127.824411 128.16 
L 127.824411 91.68 
L 99.926155 91.68 
z
" clip-path="url(#p0c3ccd1482)" style="fill: #2ca02c; fill-opacity: 0.5; stroke: #000000; stroke-linejoin: miter"/>
   </g>
   <g id="patch_5">
    <path d="M 127.824411 128.16 
L 155.722667 128.16 
L 155.722667 128.16 
L 127.824411 128.16 
z
" clip-path="url(#p0c3ccd1482)" style="fill: #2ca02c; fill-opacity: 0.5; stroke: #000000; stroke-linejoin: miter"/>
   </g>
   <g id="patch_6">
    <path d="M 155.722667 128.16 
L 183.620924 128.16 
L 183.620924 128.16 
L 155.722667 128.16 
z
" clip-path="url(#p0c3ccd1482)" style="fill: #2ca02c; fill-opacity: 0.5; stroke: #000000; stroke-linejoin: miter"/>
   </g>
   <g id="patch_7">
    <path d="M 183.620924 128.16 
L 211.51918 128.16 
L 211.51918 55.2 
L 183.620924 55.2 
z
" clip-path="url(#p0c3ccd1482)" style="fill: #2ca02c; fill-opacity: 0.5; stroke: #000000; stroke-linejoin: miter"/>
   </g>
   <g id="patch_8">
    <path d="M 211.51918 128.16 
L 239.417436 128.16 
L 239.417436 128.16 
L 211.51918 128.16 
z
" clip-path="url(#p0c3ccd1482)" style="fill: #2ca02c; fill-opacity: 0.5; stroke: #000000; stroke-linejoin: miter"/>
   </g>
   <g id="patch_9">
    <path d="M 239.417436 128.16 
L 267.315693 128.16 
L 267.315693 91.68 
L 239.417436 91.68 
z
" clip-path="url(#p0c3ccd1482)" style="fill: #2ca02c; fill-opacity: 0.5; stroke: #000000; stroke-linejoin: miter"/>
   </g>
   <g id="patch_10">
    <path d="M 267.315693 128.16 
L 295.213949 128.16 
L 295.213949 128.16 
L 267.315693 128.16 
z
" clip-path="url(#p0c3ccd1482)" style="fill: #2ca02c; fill-opacity: 0.5; stroke: #000000; stroke-linejoin: miter"/>
   </g>
   <g id="patch_11">
    <path d="M 295.213949 128.16 
L 323.112205 128.16 
L 323.112205 91.68 
L 295.213949 91.68 
z
" clip-path="url(#p0c3ccd1482)" style="fill: #2ca02c; fill-opacity: 0.5; stroke: #000000; stroke-linejoin: miter"/>
   </g>
   <g id="patch_12">
    <path d="M 323.112205 128.16 
L 351.010462 128.16 
L 351.010462 128.16 
L 323.112205 128.16 
z
" clip-path="url(#p0c3ccd1482)" style="fill: #2ca02c; fill-opacity: 0.5; stroke: #000000; stroke-linejoin: miter"/>
   </g>
   <g id="patch_13">
    <path d="M 351.010462 128.16 
L 378.908718 128.16 
L 378.908718 128.16 
L 351.010462 128.16 
z
" clip-path="url(#p0c3ccd1482)" style="fill: #2ca02c; fill-opacity: 0.5; stroke: #000000; stroke-linejoin: miter"/>
   </g>
   <g id="patch_14">
    <path d="M 378.908718 128.16 
L 406.806975 128.16 
L 406.806975 128.16 
L 378.908718 128.16 
z
" clip-path="url(#p0c3ccd1482)" style="fill: #2ca02c; fill-opacity: 0.5; stroke: #000000; stroke-linejoin: miter"/>
   </g>
   <g id="patch_15">
    <path d="M 406.806975 128.16 
L 434.705231 128.16 
L 434.705231 128.16 
L 406.806975 128.16 
z
" clip-path="url(#p0c3ccd1482)" style="fill: #2ca02c; fill-opacity: 0.5; stroke: #000000; stroke-linejoin: miter"/>
   </g>
   <g id="patch_16">
    <path d="M 434.705231 128.16 
L 462.603487 128.16 
L 462.603487 128.16 
L 434.705231 128.16 
z
" clip-path="url(#p0c3ccd1482)" style="fill: #2ca02c; fill-opacity: 0.5; stroke: #000000; stroke-linejoin: miter"/>
   </g>
   <g id="patch_17">
    <path d="M 462.603487 128.16 
L 490.501744 128.16 
L 490.501744 128.16 
L 462.603487 128.16 
z
" clip-path="url(#p0c3ccd1482)" style="fill: #2ca02c; fill-opacity: 0.5; stroke: #000000; stroke-linejoin: miter"/>
   </g>
   <g id="patch_18">
    <path d="M 490.501744 128.16 
L 518.4 128.16 
L 518.4 128.16 
L 490.501744 128.16 
z
" clip-path="url(#p0c3ccd1482)" style="fill: #2ca02c; fill-opacity: 0.5; stroke: #000000; stroke-linejoin: miter"/>
   </g>
   <g id="patch_19">
    <path d="M 518.4 128.16 
L 546.298256 128.16 
L 546.298256 128.16 
L 518.4 128.16 
z
" clip-path="url(#p0c3ccd1482)" style="fill: #2ca02c; fill-opacity: 0.5; stroke: #000000; stroke-linejoin: miter"/>
   </g>
   <g id="patch_20">
    <path d="M 546.298256 128.16 
L 574.196513 128.16 
L 574.196513 128.16 
L 546.298256 128.16 
z
" clip-path="url(#p0c3ccd1482)" style="fill: #2ca02c; fill-opacity: 0.5; stroke: #000000; stroke-linejoin: miter"/>
   </g>
   <g id="patch_21">
    <path d="M 574.196513 128.16 
L 602.094769 128.16 
L 602.094769 128.16 
L 574.196513 128.16 
z
" clip-path="url(#p0c3ccd1482)" style="fill: #2ca02c; fill-opacity: 0.5; stroke: #000000; stroke-linejoin: miter"/>
   </g>
   <g id="patch_22">
    <path d="M 602.094769 128.16 
L 629.993025 128.16 
L 629.993025 128.16 
L 602.094769 128.16 
z
" clip-path="url(#p0c3ccd1482)" style="fill: #2ca02c; fill-opacity: 0.5; stroke: #000000; stroke-linejoin: miter"/>
   </g>
   <g id="patch_23">
    <path d="M 629.993025 128.16 
L 657.891282 128.16 
L 657.891282 128.16 
L 629.993025 128.16 
z
" clip-path="url(#p0c3ccd1482)" style="fill: #2ca02c; fill-opacity: 0.5; stroke: #000000; stroke-linejoin: miter"/>
   </g>
   <g id="patch_24">
    <path d="M 657.891282 128.16 
L 685.789538 128.16 
L 685.789538 128.16 
L 657.891282 128.16 
z
" clip-path="url(#p0c3ccd1482)" style="fill: #2ca02c; fill-opacity: 0.5; stroke: #000000; stroke-linejoin: miter"/>
   </g>
   <g id="patch_25">
    <path d="M 685.789538 128.16 
L 713.687795 128.16 
L 713.687795 128.16 
L 685.789538 128.16 
z
" clip-path="url(#p0c3ccd1482)" style="fill: #2ca02c; fill-opacity: 0.5; stroke: #000000; stroke-linejoin: miter"/>
   </g>
   <g id="patch_26">
    <path d="M 713.687795 128.16 
L 741.586051 128.16 
L 741.586051 128.16 
L 713.687795 128.16 
z
" clip-path="url(#p0c3ccd1482)" style="fill: #2ca02c; fill-opacity: 0.5; stroke: #000000; stroke-linejoin: miter"/>
   </g>
   <g id="patch_27">
    <path d="M 741.586051 128.16 
L 769.484307 128.16 
L 769.484307 128.16 
L 741.586051 128.16 
z
" clip-path="url(#p0c3ccd1482)" style="fill: #2ca02c; fill-opacity: 0.5; stroke: #000000; stroke-linejoin: miter"/>
   </g>
   <g id="patch_28">
    <path d="M 769.484307 128.16 
L 797.382564 128.16 
L 797.382564 128.16 
L 769.484307 128.16 
z
" clip-path="url(#p0c3ccd1482)" style="fill: #2ca02c; fill-opacity: 0.5; stroke: #000000; stroke-linejoin: miter"/>
   </g>
   <g id="patch_29">
    <path d="M 797.382564 128.16 
L 825.28082 128.16 
L 825.28082 128.16 
L 797.382564 128.16 
z
" clip-path="url(#p0c3ccd1482)" style="fill: #2ca02c; fill-opacity: 0.5; stroke: #000000; stroke-linejoin: miter"/>
   </g>
   <g id="patch_30">
    <path d="M 825.28082 128.16 
L 853.179076 128.16 
L 853.179076 128.16 
L 825.28082 128.16 
z
" clip-path="url(#p0c3ccd1482)" style="fill: #2ca02c; fill-opacity: 0.5; stroke: #000000; stroke-linejoin: miter"/>
   </g>
   <g id="patch_31">
    <path d="M 853.179076 128.16 
L 881.077333 128.16 
L 881.077333 128.16 
L 853.179076 128.16 
z
" clip-path="url(#p0c3ccd1482)" style="fill: #2ca02c; fill-opacity: 0.5; stroke: #000000; stroke-linejoin: miter"/>
   </g>
   <g id="patch_32">
    <path d="M 881.077333 128.16 
L 908.975589 128.16 
L 908.975589 128.16 
L 881.077333 128.16 
z
" clip-path="url(#p0c3ccd1482)" style="fill: #2ca02c; fill-opacity: 0.5; stroke: #000000; stroke-linejoin: miter"/>
   </g>
   <g id="patch_33">
    <path d="M 908.975589 128.16 
L 936.873845 128.16 
L 936.873845 128.16 
L 908.975589 128.16 
z
" clip-path="url(#p0c3ccd1482)" style="fill: #2ca02c; fill-opacity: 0.5; stroke: #000000; stroke-linejoin: miter"/>
   </g>
   <g id="patch_34">
    <path d="M 936.873845 128.16 
L 964.772102 128.16 
L 964.772102 128.16 
L 936.873845 128.16 
z
" clip-path="url(#p0c3ccd1482)" style="fill: #2ca02c; fill-opacity: 0.5; stroke: #000000; stroke-linejoin: miter"/>
   </g>
   <g id="patch_35">
    <path d="M 964.772102 128.16 
L 992.670358 128.16 
L 992.670358 128.16 
L 964.772102 128.16 
z
" clip-path="url(#p0c3ccd1482)" style="fill: #2ca02c; fill-opacity: 0.5; stroke: #000000; stroke-linejoin: miter"/>
   </g>
   <g id="patch_36">
    <path d="M 992.670358 128.16 
L 1020.568614 128.16 
L 1020.568614 128.16 
L 992.670358 128.16 
z
" clip-path="url(#p0c3ccd1482)" style="fill: #2ca02c; fill-opacity: 0.5; stroke: #000000; stroke-linejoin: miter"/>
   </g>
   <g id="patch_37">
    <path d="M 1020.568614 128.16 
L 1048.466871 128.16 
L 1048.466871 128.16 
L 1020.568614 128.16 
z
" clip-path="url(#p0c3ccd1482)" style="fill: #2ca02c; fill-opacity: 0.5; stroke: #000000; stroke-linejoin: miter"/>
   </g>
   <g id="patch_38">
    <path d="M 1048.466871 128.16 
L 1076.365127 128.16 
L 1076.365127 128.16 
L 1048.466871 128.16 
z
" clip-path="url(#p0c3ccd1482)" style="fill: #2ca02c; fill-opacity: 0.5; stroke: #000000; stroke-linejoin: miter"/>
   </g>
   <g id="patch_39">
    <path d="M 1076.365127 128.16 
L 1104.263384 128.16 
L 1104.263384 128.16 
L 1076.365127 128.16 
z
" clip-path="url(#p0c3ccd1482)" style="fill: #2ca02c; fill-opacity: 0.5; stroke: #000000; stroke-linejoin: miter"/>
   </g>
   <g id="patch_40">
    <path d="M 72.027898 128.16 
L 99.926155 128.16 
L 99.926155 91.68 
L 72.027898 91.68 
z
" clip-path="url(#p0c3ccd1482)" style="fill: #ff7f0e; fill-opacity: 0.5; stroke: #000000; stroke-linejoin: miter"/>
   </g>
   <g id="patch_41">
    <path d="M 99.926155 128.16 
L 127.824411 128.16 
L 127.824411 91.68 
L 99.926155 91.68 
z
" clip-path="url(#p0c3ccd1482)" style="fill: #ff7f0e; fill-opacity: 0.5; stroke: #000000; stroke-linejoin: miter"/>
   </g>
   <g id="patch_42">
    <path d="M 127.824411 128.16 
L 155.722667 128.16 
L 155.722667 128.16 
L 127.824411 128.16 
z
" clip-path="url(#p0c3ccd1482)" style="fill: #ff7f0e; fill-opacity: 0.5; stroke: #000000; stroke-linejoin: miter"/>
   </g>
   <g id="patch_43">
    <path d="M 155.722667 128.16 
L 183.620924 128.16 
L 183.620924 91.68 
L 155.722667 91.68 
z
" clip-path="url(#p0c3ccd1482)" style="fill: #ff7f0e; fill-opacity: 0.5; stroke: #000000; stroke-linejoin: miter"/>
   </g>
   <g id="patch_44">
    <path d="M 183.620924 128.16 
L 211.51918 128.16 
L 211.51918 91.68 
L 183.620924 91.68 
z
" clip-path="url(#p0c3ccd1482)" style="fill: #ff7f0e; fill-opacity: 0.5; stroke: #000000; stroke-linejoin: miter"/>
   </g>
   <g id="patch_45">
    <path d="M 211.51918 128.16 
L 239.417436 128.16 
L 239.417436 128.16 
L 211.51918 128.16 
z
" clip-path="url(#p0c3ccd1482)" style="fill: #ff7f0e; fill-opacity: 0.5; stroke: #000000; stroke-linejoin: miter"/>
   </g>
   <g id="patch_46">
    <path d="M 239.417436 128.16 
L 267.315693 128.16 
L 267.315693 128.16 
L 239.417436 128.16 
z
" clip-path="url(#p0c3ccd1482)" style="fill: #ff7f0e; fill-opacity: 0.5; stroke: #000000; stroke-linejoin: miter"/>
   </g>
   <g id="patch_47">
    <path d="M 267.315693 128.16 
L 295.213949 128.16 
L 295.213949 128.16 
L 267.315693 128.16 
z
" clip-path="url(#p0c3ccd1482)" style="fill: #ff7f0e; fill-opacity: 0.5; stroke: #000000; stroke-linejoin: miter"/>
   </g>
   <g id="patch_48">
    <path d="M 295.213949 128.16 
L 323.112205 128.16 
L 323.112205 128.16 
L 295.213949 128.16 
z
" clip-path="url(#p0c3ccd1482)" style="fill: #ff7f0e; fill-opacity: 0.5; stroke: #000000; stroke-linejoin: miter"/>
   </g>
   <g id="patch_49">
    <path d="M 323.112205 128.16 
L 351.010462 128.16 
L 351.010462 128.16 
L 323.112205 128.16 
z
" clip-path="url(#p0c3ccd1482)" style="fill: #ff7f0e; fill-opacity: 0.5; stroke: #000000; stroke-linejoin: miter"/>
   </g>
   <g id="patch_50">
    <path d="M 351.010462 128.16 
L 378.908718 128.16 
L 378.908718 128.16 
L 351.010462 128.16 
z
" clip-path="url(#p0c3ccd1482)" style="fill: #ff7f0e; fill-opacity: 0.5; stroke: #000000; stroke-linejoin: miter"/>
   </g>
   <g id="patch_51">
    <path d="M 378.908718 128.16 
L 406.806975 128.16 
L 406.806975 128.16 
L 378.908718 128.16 
z
" clip-path="url(#p0c3ccd1482)" style="fill: #ff7f0e; fill-opacity: 0.5; stroke: #000000; stroke-linejoin: miter"/>
   </g>
   <g id="patch_52">
    <path d="M 406.806975 128.16 
L 434.705231 128.16 
L 434.705231 128.16 
L 406.806975 128.16 
z
" clip-path="url(#p0c3ccd1482)" style="fill: #ff7f0e; fill-opacity: 0.5; stroke: #000000; stroke-linejoin: miter"/>
   </g>
   <g id="patch_53">
    <path d="M 434.705231 128.16 
L 462.603487 128.16 
L 462.603487 128.16 
L 434.705231 128.16 
z
" clip-path="url(#p0c3ccd1482)" style="fill: #ff7f0e; fill-opacity: 0.5; stroke: #000000; stroke-linejoin: miter"/>
   </g>
   <g id="patch_54">
    <path d="M 462.603487 128.16 
L 490.501744 128.16 
L 490.501744 128.16 
L 462.603487 128.16 
z
" clip-path="url(#p0c3ccd1482)" style="fill: #ff7f0e; fill-opacity: 0.5; stroke: #000000; stroke-linejoin: miter"/>
   </g>
   <g id="patch_55">
    <path d="M 490.501744 128.16 
L 518.4 128.16 
L 518.4 128.16 
L 490.501744 128.16 
z
" clip-path="url(#p0c3ccd1482)" style="fill: #ff7f0e; fill-opacity: 0.5; stroke: #000000; stroke-linejoin: miter"/>
   </g>
   <g id="patch_56">
    <path d="M 518.4 128.16 
L 546.298256 128.16 
L 546.298256 128.16 
L 518.4 128.16 
z
" clip-path="url(#p0c3ccd1482)" style="fill: #ff7f0e; fill-opacity: 0.5; stroke: #000000; stroke-linejoin: miter"/>
   </g>
   <g id="patch_57">
    <path d="M 546.298256 128.16 
L 574.196513 128.16 
L 574.196513 128.16 
L 546.298256 128.16 
z
" clip-path="url(#p0c3ccd1482)" style="fill: #ff7f0e; fill-opacity: 0.5; stroke: #000000; stroke-linejoin: miter"/>
   </g>
   <g id="patch_58">
    <path d="M 574.196513 128.16 
L 602.094769 128.16 
L 602.094769 109.92 
L 574.196513 109.92 
z
" clip-path="url(#p0c3ccd1482)" style="fill: #ff7f0e; fill-opacity: 0.5; stroke: #000000; stroke-linejoin: miter"/>
   </g>
   <g id="patch_59">
    <path d="M 602.094769 128.16 
L 629.993025 128.16 
L 629.993025 128.16 
L 602.094769 128.16 
z
" clip-path="url(#p0c3ccd1482)" style="fill: #ff7f0e; fill-opacity: 0.5; stroke: #000000; stroke-linejoin: miter"/>
   </g>
   <g id="patch_60">
    <path d="M 629.993025 128.16 
L 657.891282 128.16 
L 657.891282 109.92 
L 629.993025 109.92 
z
" clip-path="url(#p0c3ccd1482)" style="fill: #ff7f0e; fill-opacity: 0.5; stroke: #000000; stroke-linejoin: miter"/>
   </g>
   <g id="patch_61">
    <path d="M 657.891282 128.16 
L 685.789538 128.16 
L 685.789538 128.16 
L 657.891282 128.16 
z
" clip-path="url(#p0c3ccd1482)" style="fill: #ff7f0e; fill-opacity: 0.5; stroke: #000000; stroke-linejoin: miter"/>
   </g>
   <g id="patch_62">
    <path d="M 685.789538 128.16 
L 713.687795 128.16 
L 713.687795 128.16 
L 685.789538 128.16 
z
" clip-path="url(#p0c3ccd1482)" style="fill: #ff7f0e; fill-opacity: 0.5; stroke: #000000; stroke-linejoin: miter"/>
   </g>
   <g id="patch_63">
    <path d="M 713.687795 128.16 
L 741.586051 128.16 
L 741.586051 128.16 
L 713.687795 128.16 
z
" clip-path="url(#p0c3ccd1482)" style="fill: #ff7f0e; fill-opacity: 0.5; stroke: #000000; stroke-linejoin: miter"/>
   </g>
   <g id="patch_64">
    <path d="M 741.586051 128.16 
L 769.484307 128.16 
L 769.484307 128.16 
L 741.586051 128.16 
z
" clip-path="url(#p0c3ccd1482)" style="fill: #ff7f0e; fill-opacity: 0.5; stroke: #000000; stroke-linejoin: miter"/>
   </g>
   <g id="patch_65">
    <path d="M 769.484307 128.16 
L 797.382564 128.16 
L 797.382564 128.16 
L 769.484307 128.16 
z
" clip-path="url(#p0c3ccd1482)" style="fill: #ff7f0e; fill-opacity: 0.5; stroke: #000000; stroke-linejoin: miter"/>
   </g>
   <g id="patch_66">
    <path d="M 797.382564 128.16 
L 825.28082 128.16 
L 825.28082 128.16 
L 797.382564 128.16 
z
" clip-path="url(#p0c3ccd1482)" style="fill: #ff7f0e; fill-opacity: 0.5; stroke: #000000; stroke-linejoin: miter"/>
   </g>
   <g id="patch_67">
    <path d="M 825.28082 128.16 
L 853.179076 128.16 
L 853.179076 128.16 
L 825.28082 128.16 
z
" clip-path="url(#p0c3ccd1482)" style="fill: #ff7f0e; fill-opacity: 0.5; stroke: #000000; stroke-linejoin: miter"/>
   </g>
   <g id="patch_68">
    <path d="M 853.179076 128.16 
L 881.077333 128.16 
L 881.077333 128.16 
L 853.179076 128.16 
z
" clip-path="url(#p0c3ccd1482)" style="fill: #ff7f0e; fill-opacity: 0.5; stroke: #000000; stroke-linejoin: miter"/>
   </g>
   <g id="patch_69">
    <path d="M 881.077333 128.16 
L 908.975589 128.16 
L 908.975589 128.16 
L 881.077333 128.16 
z
" clip-path="url(#p0c3ccd1482)" style="fill: #ff7f0e; fill-opacity: 0.5; stroke: #000000; stroke-linejoin: miter"/>
   </g>
   <g id="patch_70">
    <path d="M 908.975589 128.16 
L 936.873845 128.16 
L 936.873845 128.16 
L 908.975589 128.16 
z
" clip-path="url(#p0c3ccd1482)" style="fill: #ff7f0e; fill-opacity: 0.5; stroke: #000000; stroke-linejoin: miter"/>
   </g>
   <g id="patch_71">
    <path d="M 936.873845 128.16 
L 964.772102 128.16 
L 964.772102 128.16 
L 936.873845 128.16 
z
" clip-path="url(#p0c3ccd1482)" style="fill: #ff7f0e; fill-opacity: 0.5; stroke: #000000; stroke-linejoin: miter"/>
   </g>
   <g id="patch_72">
    <path d="M 964.772102 128.16 
L 992.670358 128.16 
L 992.670358 128.16 
L 964.772102 128.16 
z
" clip-path="url(#p0c3ccd1482)" style="fill: #ff7f0e; fill-opacity: 0.5; stroke: #000000; stroke-linejoin: miter"/>
   </g>
   <g id="patch_73">
    <path d="M 992.670358 128.16 
L 1020.568614 128.16 
L 1020.568614 128.16 
L 992.670358 128.16 
z
" clip-path="url(#p0c3ccd1482)" style="fill: #ff7f0e; fill-opacity: 0.5; stroke: #000000; stroke-linejoin: miter"/>
   </g>
   <g id="patch_74">
    <path d="M 1020.568614 128.16 
L 1048.466871 128.16 
L 1048.466871 128.16 
L 1020.568614 128.16 
z
" clip-path="url(#p0c3ccd1482)" style="fill: #ff7f0e; fill-opacity: 0.5; stroke: #000000; stroke-linejoin: miter"/>
   </g>
   <g id="patch_75">
    <path d="M 1048.466871 128.16 
L 1076.365127 128.16 
L 1076.365127 128.16 
L 1048.466871 128.16 
z
" clip-path="url(#p0c3ccd1482)" style="fill: #ff7f0e; fill-opacity: 0.5; stroke: #000000; stroke-linejoin: miter"/>
   </g>
   <g id="patch_76">
    <path d="M 1076.365127 128.16 
L 1104.263384 128.16 
L 1104.263384 128.16 
L 1076.365127 128.16 
z
" clip-path="url(#p0c3ccd1482)" style="fill: #ff7f0e; fill-opacity: 0.5; stroke: #000000; stroke-linejoin: miter"/>
   </g>
   <g id="patch_77">
    <path d="M 72.027898 128.16 
L 99.926155 128.16 
L 99.926155 22.56 
L 72.027898 22.56 
z
" clip-path="url(#p0c3ccd1482)" style="fill: #1f77b4; fill-opacity: 0.5; stroke: #000000; stroke-linejoin: miter"/>
   </g>
   <g id="patch_78">
    <path d="M 99.926155 128.16 
L 127.824411 128.16 
L 127.824411 107.04 
L 99.926155 107.04 
z
" clip-path="url(#p0c3ccd1482)" style="fill: #1f77b4; fill-opacity: 0.5; stroke: #000000; stroke-linejoin: miter"/>
   </g>
   <g id="patch_79">
    <path d="M 127.824411 128.16 
L 155.722667 128.16 
L 155.722667 114.72 
L 127.824411 114.72 
z
" clip-path="url(#p0c3ccd1482)" style="fill: #1f77b4; fill-opacity: 0.5; stroke: #000000; stroke-linejoin: miter"/>
   </g>
   <g id="patch_80">
    <path d="M 155.722667 128.16 
L 183.620924 128.16 
L 183.620924 112.8 
L 155.722667 112.8 
z
" clip-path="url(#p0c3ccd1482)" style="fill: #1f77b4; fill-opacity: 0.5; stroke: #000000; stroke-linejoin: miter"/>
   </g>
   <g id="patch_81">
    <path d="M 183.620924 128.16 
L 211.51918 128.16 
L 211.51918 124.32 
L 183.620924 124.32 
z
" clip-path="url(#p0c3ccd1482)" style="fill: #1f77b4; fill-opacity: 0.5; stroke: #000000; stroke-linejoin: miter"/>
   </g>
   <g id="patch_82">
    <path d="M 211.51918 128.16 
L 239.417436 128.16 
L 239.417436 120.48 
L 211.51918 120.48 
z
" clip-path="url(#p0c3ccd1482)" style="fill: #1f77b4; fill-opacity: 0.5; stroke: #000000; stroke-linejoin: miter"/>
   </g>
   <g id="patch_83">
    <path d="M 239.417436 128.16 
L 267.315693 128.16 
L 267.315693 128.16 
L 239.417436 128.16 
z
" clip-path="url(#p0c3ccd1482)" style="fill: #1f77b4; fill-opacity: 0.5; stroke: #000000; stroke-linejoin: miter"/>
   </g>
   <g id="patch_84">
    <path d="M 267.315693 128.16 
L 295.213949 128.16 
L 295.213949 122.4 
L 267.315693 122.4 
z
" clip-path="url(#p0c3ccd1482)" style="fill: #1f77b4; fill-opacity: 0.5; stroke: #000000; stroke-linejoin: miter"/>
   </g>
   <g id="patch_85">
    <path d="M 295.213949 128.16 
L 323.112205 128.16 
L 323.112205 128.16 
L 295.213949 128.16 
z
" clip-path="url(#p0c3ccd1482)" style="fill: #1f77b4; fill-opacity: 0.5; stroke: #000000; stroke-linejoin: miter"/>
   </g>
   <g id="patch_86">
    <path d="M 323.112205 128.16 
L 351.010462 128.16 
L 351.010462 128.16 
L 323.112205 128.16 
z
" clip-path="url(#p0c3ccd1482)" style="fill: #1f77b4; fill-opacity: 0.5; stroke: #000000; stroke-linejoin: miter"/>
   </g>
   <g id="patch_87">
    <path d="M 351.010462 128.16 
L 378.908718 128.16 
L 378.908718 128.16 
L 351.010462 128.16 
z
" clip-path="url(#p0c3ccd1482)" style="fill: #1f77b4; fill-opacity: 0.5; stroke: #000000; stroke-linejoin: miter"/>
   </g>
   <g id="patch_88">
    <path d="M 378.908718 128.16 
L 406.806975 128.16 
L 406.806975 124.32 
L 378.908718 124.32 
z
" clip-path="url(#p0c3ccd1482)" style="fill: #1f77b4; fill-opacity: 0.5; stroke: #000000; stroke-linejoin: miter"/>
   </g>
   <g id="patch_89">
    <path d="M 406.806975 128.16 
L 434.705231 128.16 
L 434.705231 128.16 
L 406.806975 128.16 
z
" clip-path="url(#p0c3ccd1482)" style="fill: #1f77b4; fill-opacity: 0.5; stroke: #000000; stroke-linejoin: miter"/>
   </g>
   <g id="patch_90">
    <path d="M 434.705231 128.16 
L 462.603487 128.16 
L 462.603487 128.16 
L 434.705231 128.16 
z
" clip-path="url(#p0c3ccd1482)" style="fill: #1f77b4; fill-opacity: 0.5; stroke: #000000; stroke-linejoin: miter"/>
   </g>
   <g id="patch_91">
    <path d="M 462.603487 128.16 
L 490.501744 128.16 
L 490.501744 126.24 
L 462.603487 126.24 
z
" clip-path="url(#p0c3ccd1482)" style="fill: #1f77b4; fill-opacity: 0.5; stroke: #000000; stroke-linejoin: miter"/>
   </g>
   <g id="patch_92">
    <path d="M 490.501744 128.16 
L 518.4 128.16 
L 518.4 128.16 
L 490.501744 128.16 
z
" clip-path="url(#p0c3ccd1482)" style="fill: #1f77b4; fill-opacity: 0.5; stroke: #000000; stroke-linejoin: miter"/>
   </g>
   <g id="patch_93">
    <path d="M 518.4 128.16 
L 546.298256 128.16 
L 546.298256 128.16 
L 518.4 128.16 
z
" clip-path="url(#p0c3ccd1482)" style="fill: #1f77b4; fill-opacity: 0.5; stroke: #000000; stroke-linejoin: miter"/>
   </g>
   <g id="patch_94">
    <path d="M 546.298256 128.16 
L 574.196513 128.16 
L 574.196513 128.16 
L 546.298256 128.16 
z
" clip-path="url(#p0c3ccd1482)" style="fill: #1f77b4; fill-opacity: 0.5; stroke: #000000; stroke-linejoin: miter"/>
   </g>
   <g id="patch_95">
    <path d="M 574.196513 128.16 
L 602.094769 128.16 
L 602.094769 128.16 
L 574.196513 128.16 
z
" clip-path="url(#p0c3ccd1482)" style="fill: #1f77b4; fill-opacity: 0.5; stroke: #000000; stroke-linejoin: miter"/>
   </g>
   <g id="patch_96">
    <path d="M 602.094769 128.16 
L 629.993025 128.16 
L 629.993025 128.16 
L 602.094769 128.16 
z
" clip-path="url(#p0c3ccd1482)" style="fill: #1f77b4; fill-opacity: 0.5; stroke: #000000; stroke-linejoin: miter"/>
   </g>
   <g id="patch_97">
    <path d="M 629.993025 128.16 
L 657.891282 128.16 
L 657.891282 128.16 
L 629.993025 128.16 
z
" clip-path="url(#p0c3ccd1482)" style="fill: #1f77b4; fill-opacity: 0.5; stroke: #000000; stroke-linejoin: miter"/>
   </g>
   <g id="patch_98">
    <path d="M 657.891282 128.16 
L 685.789538 128.16 
L 685.789538 128.16 
L 657.891282 128.16 
z
" clip-path="url(#p0c3ccd1482)" style="fill: #1f77b4; fill-opacity: 0.5; stroke: #000000; stroke-linejoin: miter"/>
   </g>
   <g id="patch_99">
    <path d="M 685.789538 128.16 
L 713.687795 128.16 
L 713.687795 126.24 
L 685.789538 126.24 
z
" clip-path="url(#p0c3ccd1482)" style="fill: #1f77b4; fill-opacity: 0.5; stroke: #000000; stroke-linejoin: miter"/>
   </g>
   <g id="patch_100">
    <path d="M 713.687795 128.16 
L 741.586051 128.16 
L 741.586051 128.16 
L 713.687795 128.16 
z
" clip-path="url(#p0c3ccd1482)" style="fill: #1f77b4; fill-opacity: 0.5; stroke: #000000; stroke-linejoin: miter"/>
   </g>
   <g id="patch_101">
    <path d="M 741.586051 128.16 
L 769.484307 128.16 
L 769.484307 128.16 
L 741.586051 128.16 
z
" clip-path="url(#p0c3ccd1482)" style="fill: #1f77b4; fill-opacity: 0.5; stroke: #000000; stroke-linejoin: miter"/>
   </g>
   <g id="patch_102">
    <path d="M 769.484307 128.16 
L 797.382564 128.16 
L 797.382564 128.16 
L 769.484307 128.16 
z
" clip-path="url(#p0c3ccd1482)" style="fill: #1f77b4; fill-opacity: 0.5; stroke: #000000; stroke-linejoin: miter"/>
   </g>
   <g id="patch_103">
    <path d="M 797.382564 128.16 
L 825.28082 128.16 
L 825.28082 128.16 
L 797.382564 128.16 
z
" clip-path="url(#p0c3ccd1482)" style="fill: #1f77b4; fill-opacity: 0.5; stroke: #000000; stroke-linejoin: miter"/>
   </g>
   <g id="patch_104">
    <path d="M 825.28082 128.16 
L 853.179076 128.16 
L 853.179076 128.16 
L 825.28082 128.16 
z
" clip-path="url(#p0c3ccd1482)" style="fill: #1f77b4; fill-opacity: 0.5; stroke: #000000; stroke-linejoin: miter"/>
   </g>
   <g id="patch_105">
    <path d="M 853.179076 128.16 
L 881.077333 128.16 
L 881.077333 128.16 
L 853.179076 128.16 
z
" clip-path="url(#p0c3ccd1482)" style="fill: #1f77b4; fill-opacity: 0.5; stroke: #000000; stroke-linejoin: miter"/>
   </g>
   <g id="patch_106">
    <path d="M 881.077333 128.16 
L 908.975589 128.16 
L 908.975589 128.16 
L 881.077333 128.16 
z
" clip-path="url(#p0c3ccd1482)" style="fill: #1f77b4; fill-opacity: 0.5; stroke: #000000; stroke-linejoin: miter"/>
   </g>
   <g id="patch_107">
    <path d="M 908.975589 128.16 
L 936.873845 128.16 
L 936.873845 128.16 
L 908.975589 128.16 
z
" clip-path="url(#p0c3ccd1482)" style="fill: #1f77b4; fill-opacity: 0.5; stroke: #000000; stroke-linejoin: miter"/>
   </g>
   <g id="patch_108">
    <path d="M 936.873845 128.16 
L 964.772102 128.16 
L 964.772102 128.16 
L 936.873845 128.16 
z
" clip-path="url(#p0c3ccd1482)" style="fill: #1f77b4; fill-opacity: 0.5; stroke: #000000; stroke-linejoin: miter"/>
   </g>
   <g id="patch_109">
    <path d="M 964.772102 128.16 
L 992.670358 128.16 
L 992.670358 128.16 
L 964.772102 128.16 
z
" clip-path="url(#p0c3ccd1482)" style="fill: #1f77b4; fill-opacity: 0.5; stroke: #000000; stroke-linejoin: miter"/>
   </g>
   <g id="patch_110">
    <path d="M 992.670358 128.16 
L 1020.568614 128.16 
L 1020.568614 128.16 
L 992.670358 128.16 
z
" clip-path="url(#p0c3ccd1482)" style="fill: #1f77b4; fill-opacity: 0.5; stroke: #000000; stroke-linejoin: miter"/>
   </g>
   <g id="patch_111">
    <path d="M 1020.568614 128.16 
L 1048.466871 128.16 
L 1048.466871 128.16 
L 1020.568614 128.16 
z
" clip-path="url(#p0c3ccd1482)" style="fill: #1f77b4; fill-opacity: 0.5; stroke: #000000; stroke-linejoin: miter"/>
   </g>
   <g id="patch_112">
    <path d="M 1048.466871 128.16 
L 1076.365127 128.16 
L 1076.365127 128.16 
L 1048.466871 128.16 
z
" clip-path="url(#p0c3ccd1482)" style="fill: #1f77b4; fill-opacity: 0.5; stroke: #000000; stroke-linejoin: miter"/>
   </g>
   <g id="patch_113">
    <path d="M 1076.365127 128.16 
L 1104.263384 128.16 
L 1104.263384 126.24 
L 1076.365127 126.24 
z
" clip-path="url(#p0c3ccd1482)" style="fill: #1f77b4; fill-opacity: 0.5; stroke: #000000; stroke-linejoin: miter"/>
   </g>
   <g id="matplotlib.axis_1">
    <g id="xtick_1">
     <g id="line2d_1">
      <defs>
       <path id="m692e7d167c" d="M 0 0 
L 0 3.5 
" style="stroke: #000000; stroke-width: 0.8"/>
      </defs>
      <g>
       <use xlink:href="#m692e7d167c" x="72" y="128.16" style="stroke: #000000; stroke-width: 0.8"/>
      </g>
     </g>
     <g id="text_1">
      <!-- 0k -->
      <g transform="translate(64.708125 144.278125) scale(0.12 -0.12)">
       <defs>
        <path id="DejaVuSans-30" d="M 2034 4250 
Q 1547 4250 1301 3770 
Q 1056 3291 1056 2328 
Q 1056 1369 1301 889 
Q 1547 409 2034 409 
Q 2525 409 2770 889 
Q 3016 1369 3016 2328 
Q 3016 3291 2770 3770 
Q 2525 4250 2034 4250 
z
M 2034 4750 
Q 2819 4750 3233 4129 
Q 3647 3509 3647 2328 
Q 3647 1150 3233 529 
Q 2819 -91 2034 -91 
Q 1250 -91 836 529 
Q 422 1150 422 2328 
Q 422 3509 836 4129 
Q 1250 4750 2034 4750 
z
" transform="scale(0.015625)"/>
        <path id="DejaVuSans-6b" d="M 581 4863 
L 1159 4863 
L 1159 1991 
L 2875 3500 
L 3609 3500 
L 1753 1863 
L 3688 0 
L 2938 0 
L 1159 1709 
L 1159 0 
L 581 0 
L 581 4863 
z
" transform="scale(0.015625)"/>
       </defs>
       <use xlink:href="#DejaVuSans-30"/>
       <use xlink:href="#DejaVuSans-6b" x="63.623047"/>
      </g>
     </g>
    </g>
    <g id="xtick_2">
     <g id="line2d_2">
      <g>
       <use xlink:href="#m692e7d167c" x="127.796513" y="128.16" style="stroke: #000000; stroke-width: 0.8"/>
      </g>
     </g>
     <g id="text_2">
      <!-- 2k -->
      <g transform="translate(120.504638 144.278125) scale(0.12 -0.12)">
       <defs>
        <path id="DejaVuSans-32" d="M 1228 531 
L 3431 531 
L 3431 0 
L 469 0 
L 469 531 
Q 828 903 1448 1529 
Q 2069 2156 2228 2338 
Q 2531 2678 2651 2914 
Q 2772 3150 2772 3378 
Q 2772 3750 2511 3984 
Q 2250 4219 1831 4219 
Q 1534 4219 1204 4116 
Q 875 4013 500 3803 
L 500 4441 
Q 881 4594 1212 4672 
Q 1544 4750 1819 4750 
Q 2544 4750 2975 4387 
Q 3406 4025 3406 3419 
Q 3406 3131 3298 2873 
Q 3191 2616 2906 2266 
Q 2828 2175 2409 1742 
Q 1991 1309 1228 531 
z
" transform="scale(0.015625)"/>
       </defs>
       <use xlink:href="#DejaVuSans-32"/>
       <use xlink:href="#DejaVuSans-6b" x="63.623047"/>
      </g>
     </g>
    </g>
    <g id="xtick_3">
     <g id="line2d_3">
      <g>
       <use xlink:href="#m692e7d167c" x="183.593025" y="128.16" style="stroke: #000000; stroke-width: 0.8"/>
      </g>
     </g>
     <g id="text_3">
      <!-- 4k -->
      <g transform="translate(176.30115 144.278125) scale(0.12 -0.12)">
       <defs>
        <path id="DejaVuSans-34" d="M 2419 4116 
L 825 1625 
L 2419 1625 
L 2419 4116 
z
M 2253 4666 
L 3047 4666 
L 3047 1625 
L 3713 1625 
L 3713 1100 
L 3047 1100 
L 3047 0 
L 2419 0 
L 2419 1100 
L 313 1100 
L 313 1709 
L 2253 4666 
z
" transform="scale(0.015625)"/>
       </defs>
       <use xlink:href="#DejaVuSans-34"/>
       <use xlink:href="#DejaVuSans-6b" x="63.623047"/>
      </g>
     </g>
    </g>
    <g id="xtick_4">
     <g id="line2d_4">
      <g>
       <use xlink:href="#m692e7d167c" x="239.389538" y="128.16" style="stroke: #000000; stroke-width: 0.8"/>
      </g>
     </g>
     <g id="text_4">
      <!-- 6k -->
      <g transform="translate(232.097663 144.278125) scale(0.12 -0.12)">
       <defs>
        <path id="DejaVuSans-36" d="M 2113 2584 
Q 1688 2584 1439 2293 
Q 1191 2003 1191 1497 
Q 1191 994 1439 701 
Q 1688 409 2113 409 
Q 2538 409 2786 701 
Q 3034 994 3034 1497 
Q 3034 2003 2786 2293 
Q 2538 2584 2113 2584 
z
M 3366 4563 
L 3366 3988 
Q 3128 4100 2886 4159 
Q 2644 4219 2406 4219 
Q 1781 4219 1451 3797 
Q 1122 3375 1075 2522 
Q 1259 2794 1537 2939 
Q 1816 3084 2150 3084 
Q 2853 3084 3261 2657 
Q 3669 2231 3669 1497 
Q 3669 778 3244 343 
Q 2819 -91 2113 -91 
Q 1303 -91 875 529 
Q 447 1150 447 2328 
Q 447 3434 972 4092 
Q 1497 4750 2381 4750 
Q 2619 4750 2861 4703 
Q 3103 4656 3366 4563 
z
" transform="scale(0.015625)"/>
       </defs>
       <use xlink:href="#DejaVuSans-36"/>
       <use xlink:href="#DejaVuSans-6b" x="63.623047"/>
      </g>
     </g>
    </g>
    <g id="xtick_5">
     <g id="line2d_5">
      <g>
       <use xlink:href="#m692e7d167c" x="295.186051" y="128.16" style="stroke: #000000; stroke-width: 0.8"/>
      </g>
     </g>
     <g id="text_5">
      <!-- 8k -->
      <g transform="translate(287.894176 144.278125) scale(0.12 -0.12)">
       <defs>
        <path id="DejaVuSans-38" d="M 2034 2216 
Q 1584 2216 1326 1975 
Q 1069 1734 1069 1313 
Q 1069 891 1326 650 
Q 1584 409 2034 409 
Q 2484 409 2743 651 
Q 3003 894 3003 1313 
Q 3003 1734 2745 1975 
Q 2488 2216 2034 2216 
z
M 1403 2484 
Q 997 2584 770 2862 
Q 544 3141 544 3541 
Q 544 4100 942 4425 
Q 1341 4750 2034 4750 
Q 2731 4750 3128 4425 
Q 3525 4100 3525 3541 
Q 3525 3141 3298 2862 
Q 3072 2584 2669 2484 
Q 3125 2378 3379 2068 
Q 3634 1759 3634 1313 
Q 3634 634 3220 271 
Q 2806 -91 2034 -91 
Q 1263 -91 848 271 
Q 434 634 434 1313 
Q 434 1759 690 2068 
Q 947 2378 1403 2484 
z
M 1172 3481 
Q 1172 3119 1398 2916 
Q 1625 2713 2034 2713 
Q 2441 2713 2670 2916 
Q 2900 3119 2900 3481 
Q 2900 3844 2670 4047 
Q 2441 4250 2034 4250 
Q 1625 4250 1398 4047 
Q 1172 3844 1172 3481 
z
" transform="scale(0.015625)"/>
       </defs>
       <use xlink:href="#DejaVuSans-38"/>
       <use xlink:href="#DejaVuSans-6b" x="63.623047"/>
      </g>
     </g>
    </g>
    <g id="xtick_6">
     <g id="line2d_6">
      <g>
       <use xlink:href="#m692e7d167c" x="350.982564" y="128.16" style="stroke: #000000; stroke-width: 0.8"/>
      </g>
     </g>
     <g id="text_6">
      <!-- 10k -->
      <g transform="translate(339.873189 144.278125) scale(0.12 -0.12)">
       <defs>
        <path id="DejaVuSans-31" d="M 794 531 
L 1825 531 
L 1825 4091 
L 703 3866 
L 703 4441 
L 1819 4666 
L 2450 4666 
L 2450 531 
L 3481 531 
L 3481 0 
L 794 0 
L 794 531 
z
" transform="scale(0.015625)"/>
       </defs>
       <use xlink:href="#DejaVuSans-31"/>
       <use xlink:href="#DejaVuSans-30" x="63.623047"/>
       <use xlink:href="#DejaVuSans-6b" x="127.246094"/>
      </g>
     </g>
    </g>
    <g id="xtick_7">
     <g id="line2d_7">
      <g>
       <use xlink:href="#m692e7d167c" x="406.779076" y="128.16" style="stroke: #000000; stroke-width: 0.8"/>
      </g>
     </g>
     <g id="text_7">
      <!-- 12k -->
      <g transform="translate(395.669701 144.278125) scale(0.12 -0.12)">
       <use xlink:href="#DejaVuSans-31"/>
       <use xlink:href="#DejaVuSans-32" x="63.623047"/>
       <use xlink:href="#DejaVuSans-6b" x="127.246094"/>
      </g>
     </g>
    </g>
    <g id="xtick_8">
     <g id="line2d_8">
      <g>
       <use xlink:href="#m692e7d167c" x="462.575589" y="128.16" style="stroke: #000000; stroke-width: 0.8"/>
      </g>
     </g>
     <g id="text_8">
      <!-- 14k -->
      <g transform="translate(451.466214 144.278125) scale(0.12 -0.12)">
       <use xlink:href="#DejaVuSans-31"/>
       <use xlink:href="#DejaVuSans-34" x="63.623047"/>
       <use xlink:href="#DejaVuSans-6b" x="127.246094"/>
      </g>
     </g>
    </g>
    <g id="xtick_9">
     <g id="line2d_9">
      <g>
       <use xlink:href="#m692e7d167c" x="518.372102" y="128.16" style="stroke: #000000; stroke-width: 0.8"/>
      </g>
     </g>
     <g id="text_9">
      <!-- 16k -->
      <g transform="translate(507.262727 144.278125) scale(0.12 -0.12)">
       <use xlink:href="#DejaVuSans-31"/>
       <use xlink:href="#DejaVuSans-36" x="63.623047"/>
       <use xlink:href="#DejaVuSans-6b" x="127.246094"/>
      </g>
     </g>
    </g>
    <g id="text_10">
     <!-- #instr -->
     <g transform="translate(272.148047 162.171406) scale(0.15 -0.15)">
      <defs>
       <path id="DejaVuSans-23" d="M 3272 2816 
L 2363 2816 
L 2100 1772 
L 3016 1772 
L 3272 2816 
z
M 2803 4594 
L 2478 3297 
L 3391 3297 
L 3719 4594 
L 4219 4594 
L 3897 3297 
L 4872 3297 
L 4872 2816 
L 3775 2816 
L 3519 1772 
L 4513 1772 
L 4513 1294 
L 3397 1294 
L 3072 0 
L 2572 0 
L 2894 1294 
L 1978 1294 
L 1656 0 
L 1153 0 
L 1478 1294 
L 494 1294 
L 494 1772 
L 1594 1772 
L 1856 2816 
L 850 2816 
L 850 3297 
L 1978 3297 
L 2297 4594 
L 2803 4594 
z
" transform="scale(0.015625)"/>
       <path id="DejaVuSans-69" d="M 603 3500 
L 1178 3500 
L 1178 0 
L 603 0 
L 603 3500 
z
M 603 4863 
L 1178 4863 
L 1178 4134 
L 603 4134 
L 603 4863 
z
" transform="scale(0.015625)"/>
       <path id="DejaVuSans-6e" d="M 3513 2113 
L 3513 0 
L 2938 0 
L 2938 2094 
Q 2938 2591 2744 2837 
Q 2550 3084 2163 3084 
Q 1697 3084 1428 2787 
Q 1159 2491 1159 1978 
L 1159 0 
L 581 0 
L 581 3500 
L 1159 3500 
L 1159 2956 
Q 1366 3272 1645 3428 
Q 1925 3584 2291 3584 
Q 2894 3584 3203 3211 
Q 3513 2838 3513 2113 
z
" transform="scale(0.015625)"/>
       <path id="DejaVuSans-73" d="M 2834 3397 
L 2834 2853 
Q 2591 2978 2328 3040 
Q 2066 3103 1784 3103 
Q 1356 3103 1142 2972 
Q 928 2841 928 2578 
Q 928 2378 1081 2264 
Q 1234 2150 1697 2047 
L 1894 2003 
Q 2506 1872 2764 1633 
Q 3022 1394 3022 966 
Q 3022 478 2636 193 
Q 2250 -91 1575 -91 
Q 1294 -91 989 -36 
Q 684 19 347 128 
L 347 722 
Q 666 556 975 473 
Q 1284 391 1588 391 
Q 1994 391 2212 530 
Q 2431 669 2431 922 
Q 2431 1156 2273 1281 
Q 2116 1406 1581 1522 
L 1381 1569 
Q 847 1681 609 1914 
Q 372 2147 372 2553 
Q 372 3047 722 3315 
Q 1072 3584 1716 3584 
Q 2034 3584 2315 3537 
Q 2597 3491 2834 3397 
z
" transform="scale(0.015625)"/>
       <path id="DejaVuSans-74" d="M 1172 4494 
L 1172 3500 
L 2356 3500 
L 2356 3053 
L 1172 3053 
L 1172 1153 
Q 1172 725 1289 603 
Q 1406 481 1766 481 
L 2356 481 
L 2356 0 
L 1766 0 
Q 1100 0 847 248 
Q 594 497 594 1153 
L 594 3053 
L 172 3053 
L 172 3500 
L 594 3500 
L 594 4494 
L 1172 4494 
z
" transform="scale(0.015625)"/>
       <path id="DejaVuSans-72" d="M 2631 2963 
Q 2534 3019 2420 3045 
Q 2306 3072 2169 3072 
Q 1681 3072 1420 2755 
Q 1159 2438 1159 1844 
L 1159 0 
L 581 0 
L 581 3500 
L 1159 3500 
L 1159 2956 
Q 1341 3275 1631 3429 
Q 1922 3584 2338 3584 
Q 2397 3584 2469 3576 
Q 2541 3569 2628 3553 
L 2631 2963 
z
" transform="scale(0.015625)"/>
      </defs>
      <use xlink:href="#DejaVuSans-23"/>
      <use xlink:href="#DejaVuSans-69" x="83.789062"/>
      <use xlink:href="#DejaVuSans-6e" x="111.572266"/>
      <use xlink:href="#DejaVuSans-73" x="174.951172"/>
      <use xlink:href="#DejaVuSans-74" x="227.050781"/>
      <use xlink:href="#DejaVuSans-72" x="266.259766"/>
     </g>
    </g>
   </g>
   <g id="matplotlib.axis_2">
    <g id="ytick_1">
     <g id="line2d_10">
      <defs>
       <path id="m4b231f8480" d="M 0 0 
L -3.5 0 
" style="stroke: #000000; stroke-width: 0.8"/>
      </defs>
      <g>
       <use xlink:href="#m4b231f8480" x="72" y="128.16" style="stroke: #000000; stroke-width: 0.8"/>
      </g>
     </g>
     <g id="text_11">
      <!-- 0 -->
      <g transform="translate(58.6375 131.959219) scale(0.1 -0.1)">
       <use xlink:href="#DejaVuSans-30"/>
      </g>
     </g>
    </g>
    <g id="ytick_2">
     <g id="line2d_11">
      <g>
       <use xlink:href="#m4b231f8480" x="72" y="91.68" style="stroke: #000000; stroke-width: 0.8"/>
      </g>
     </g>
     <g id="text_12">
      <!-- 20 -->
      <g transform="translate(52.275 95.479219) scale(0.1 -0.1)">
       <use xlink:href="#DejaVuSans-32"/>
       <use xlink:href="#DejaVuSans-30" x="63.623047"/>
      </g>
     </g>
    </g>
    <g id="ytick_3">
     <g id="line2d_12">
      <g>
       <use xlink:href="#m4b231f8480" x="72" y="55.2" style="stroke: #000000; stroke-width: 0.8"/>
      </g>
     </g>
     <g id="text_13">
      <!-- 40 -->
      <g transform="translate(52.275 58.999219) scale(0.1 -0.1)">
       <use xlink:href="#DejaVuSans-34"/>
       <use xlink:href="#DejaVuSans-30" x="63.623047"/>
      </g>
     </g>
    </g>
    <g id="ytick_4">
     <g id="line2d_13">
      <g>
       <use xlink:href="#m4b231f8480" x="72" y="18.72" style="stroke: #000000; stroke-width: 0.8"/>
      </g>
     </g>
     <g id="text_14">
      <!-- 60 -->
      <g transform="translate(52.275 22.519219) scale(0.1 -0.1)">
       <use xlink:href="#DejaVuSans-36"/>
       <use xlink:href="#DejaVuSans-30" x="63.623047"/>
      </g>
     </g>
    </g>
    <g id="text_15">
     <!-- Percentage [%] -->
     <g transform="translate(45.155469 130.266094) rotate(-90) scale(0.15 -0.15)">
      <defs>
       <path id="DejaVuSans-50" d="M 1259 4147 
L 1259 2394 
L 2053 2394 
Q 2494 2394 2734 2622 
Q 2975 2850 2975 3272 
Q 2975 3691 2734 3919 
Q 2494 4147 2053 4147 
L 1259 4147 
z
M 628 4666 
L 2053 4666 
Q 2838 4666 3239 4311 
Q 3641 3956 3641 3272 
Q 3641 2581 3239 2228 
Q 2838 1875 2053 1875 
L 1259 1875 
L 1259 0 
L 628 0 
L 628 4666 
z
" transform="scale(0.015625)"/>
       <path id="DejaVuSans-65" d="M 3597 1894 
L 3597 1613 
L 953 1613 
Q 991 1019 1311 708 
Q 1631 397 2203 397 
Q 2534 397 2845 478 
Q 3156 559 3463 722 
L 3463 178 
Q 3153 47 2828 -22 
Q 2503 -91 2169 -91 
Q 1331 -91 842 396 
Q 353 884 353 1716 
Q 353 2575 817 3079 
Q 1281 3584 2069 3584 
Q 2775 3584 3186 3129 
Q 3597 2675 3597 1894 
z
M 3022 2063 
Q 3016 2534 2758 2815 
Q 2500 3097 2075 3097 
Q 1594 3097 1305 2825 
Q 1016 2553 972 2059 
L 3022 2063 
z
" transform="scale(0.015625)"/>
       <path id="DejaVuSans-63" d="M 3122 3366 
L 3122 2828 
Q 2878 2963 2633 3030 
Q 2388 3097 2138 3097 
Q 1578 3097 1268 2742 
Q 959 2388 959 1747 
Q 959 1106 1268 751 
Q 1578 397 2138 397 
Q 2388 397 2633 464 
Q 2878 531 3122 666 
L 3122 134 
Q 2881 22 2623 -34 
Q 2366 -91 2075 -91 
Q 1284 -91 818 406 
Q 353 903 353 1747 
Q 353 2603 823 3093 
Q 1294 3584 2113 3584 
Q 2378 3584 2631 3529 
Q 2884 3475 3122 3366 
z
" transform="scale(0.015625)"/>
       <path id="DejaVuSans-61" d="M 2194 1759 
Q 1497 1759 1228 1600 
Q 959 1441 959 1056 
Q 959 750 1161 570 
Q 1363 391 1709 391 
Q 2188 391 2477 730 
Q 2766 1069 2766 1631 
L 2766 1759 
L 2194 1759 
z
M 3341 1997 
L 3341 0 
L 2766 0 
L 2766 531 
Q 2569 213 2275 61 
Q 1981 -91 1556 -91 
Q 1019 -91 701 211 
Q 384 513 384 1019 
Q 384 1609 779 1909 
Q 1175 2209 1959 2209 
L 2766 2209 
L 2766 2266 
Q 2766 2663 2505 2880 
Q 2244 3097 1772 3097 
Q 1472 3097 1187 3025 
Q 903 2953 641 2809 
L 641 3341 
Q 956 3463 1253 3523 
Q 1550 3584 1831 3584 
Q 2591 3584 2966 3190 
Q 3341 2797 3341 1997 
z
" transform="scale(0.015625)"/>
       <path id="DejaVuSans-67" d="M 2906 1791 
Q 2906 2416 2648 2759 
Q 2391 3103 1925 3103 
Q 1463 3103 1205 2759 
Q 947 2416 947 1791 
Q 947 1169 1205 825 
Q 1463 481 1925 481 
Q 2391 481 2648 825 
Q 2906 1169 2906 1791 
z
M 3481 434 
Q 3481 -459 3084 -895 
Q 2688 -1331 1869 -1331 
Q 1566 -1331 1297 -1286 
Q 1028 -1241 775 -1147 
L 775 -588 
Q 1028 -725 1275 -790 
Q 1522 -856 1778 -856 
Q 2344 -856 2625 -561 
Q 2906 -266 2906 331 
L 2906 616 
Q 2728 306 2450 153 
Q 2172 0 1784 0 
Q 1141 0 747 490 
Q 353 981 353 1791 
Q 353 2603 747 3093 
Q 1141 3584 1784 3584 
Q 2172 3584 2450 3431 
Q 2728 3278 2906 2969 
L 2906 3500 
L 3481 3500 
L 3481 434 
z
" transform="scale(0.015625)"/>
       <path id="DejaVuSans-20" transform="scale(0.015625)"/>
       <path id="DejaVuSans-5b" d="M 550 4863 
L 1875 4863 
L 1875 4416 
L 1125 4416 
L 1125 -397 
L 1875 -397 
L 1875 -844 
L 550 -844 
L 550 4863 
z
" transform="scale(0.015625)"/>
       <path id="DejaVuSans-25" d="M 4653 2053 
Q 4381 2053 4226 1822 
Q 4072 1591 4072 1178 
Q 4072 772 4226 539 
Q 4381 306 4653 306 
Q 4919 306 5073 539 
Q 5228 772 5228 1178 
Q 5228 1588 5073 1820 
Q 4919 2053 4653 2053 
z
M 4653 2450 
Q 5147 2450 5437 2106 
Q 5728 1763 5728 1178 
Q 5728 594 5436 251 
Q 5144 -91 4653 -91 
Q 4153 -91 3862 251 
Q 3572 594 3572 1178 
Q 3572 1766 3864 2108 
Q 4156 2450 4653 2450 
z
M 1428 4353 
Q 1159 4353 1004 4120 
Q 850 3888 850 3481 
Q 850 3069 1003 2837 
Q 1156 2606 1428 2606 
Q 1700 2606 1854 2837 
Q 2009 3069 2009 3481 
Q 2009 3884 1853 4118 
Q 1697 4353 1428 4353 
z
M 4250 4750 
L 4750 4750 
L 1831 -91 
L 1331 -91 
L 4250 4750 
z
M 1428 4750 
Q 1922 4750 2215 4408 
Q 2509 4066 2509 3481 
Q 2509 2891 2217 2550 
Q 1925 2209 1428 2209 
Q 931 2209 642 2551 
Q 353 2894 353 3481 
Q 353 4063 643 4406 
Q 934 4750 1428 4750 
z
" transform="scale(0.015625)"/>
       <path id="DejaVuSans-5d" d="M 1947 4863 
L 1947 -844 
L 622 -844 
L 622 -397 
L 1369 -397 
L 1369 4416 
L 622 4416 
L 622 4863 
L 1947 4863 
z
" transform="scale(0.015625)"/>
      </defs>
      <use xlink:href="#DejaVuSans-50"/>
      <use xlink:href="#DejaVuSans-65" x="56.677734"/>
      <use xlink:href="#DejaVuSans-72" x="118.201172"/>
      <use xlink:href="#DejaVuSans-63" x="157.064453"/>
      <use xlink:href="#DejaVuSans-65" x="212.044922"/>
      <use xlink:href="#DejaVuSans-6e" x="273.568359"/>
      <use xlink:href="#DejaVuSans-74" x="336.947266"/>
      <use xlink:href="#DejaVuSans-61" x="376.15625"/>
      <use xlink:href="#DejaVuSans-67" x="437.435547"/>
      <use xlink:href="#DejaVuSans-65" x="500.912109"/>
      <use xlink:href="#DejaVuSans-20" x="562.435547"/>
      <use xlink:href="#DejaVuSans-5b" x="594.222656"/>
      <use xlink:href="#DejaVuSans-25" x="633.236328"/>
      <use xlink:href="#DejaVuSans-5d" x="728.255859"/>
     </g>
    </g>
   </g>
   <g id="patch_114">
    <path d="M 72 128.16 
L 72 17.28 
" style="fill: none; stroke: #000000; stroke-width: 0.8; stroke-linejoin: miter; stroke-linecap: square"/>
   </g>
   <g id="patch_115">
    <path d="M 518.4 128.16 
L 518.4 17.28 
" style="fill: none; stroke: #000000; stroke-width: 0.8; stroke-linejoin: miter; stroke-linecap: square"/>
   </g>
   <g id="patch_116">
    <path d="M 72 128.16 
L 518.4 128.16 
" style="fill: none; stroke: #000000; stroke-width: 0.8; stroke-linejoin: miter; stroke-linecap: square"/>
   </g>
   <g id="patch_117">
    <path d="M 72 17.28 
L 518.4 17.28 
" style="fill: none; stroke: #000000; stroke-width: 0.8; stroke-linejoin: miter; stroke-linecap: square"/>
   </g>
   <g id="legend_1">
    <g id="patch_118">
     <path d="M 396.508125 79.72125 
L 510 79.72125 
Q 512.4 79.72125 512.4 77.32125 
L 512.4 25.68 
Q 512.4 23.28 510 23.28 
L 396.508125 23.28 
Q 394.108125 23.28 394.108125 25.68 
L 394.108125 77.32125 
Q 394.108125 79.72125 396.508125 79.72125 
z
" style="fill: #ffffff; opacity: 0.8; stroke: #cccccc; stroke-linejoin: miter"/>
    </g>
    <g id="patch_119">
     <path d="M 398.908125 37.198125 
L 422.908125 37.198125 
L 422.908125 28.798125 
L 398.908125 28.798125 
z
" style="fill: #2ca02c; fill-opacity: 0.5; stroke: #000000; stroke-linejoin: miter"/>
    </g>
    <g id="text_16">
     <!-- Memory -->
     <g transform="translate(432.508125 37.198125) scale(0.12 -0.12)">
      <defs>
       <path id="DejaVuSans-4d" d="M 628 4666 
L 1569 4666 
L 2759 1491 
L 3956 4666 
L 4897 4666 
L 4897 0 
L 4281 0 
L 4281 4097 
L 3078 897 
L 2444 897 
L 1241 4097 
L 1241 0 
L 628 0 
L 628 4666 
z
" transform="scale(0.015625)"/>
       <path id="DejaVuSans-6d" d="M 3328 2828 
Q 3544 3216 3844 3400 
Q 4144 3584 4550 3584 
Q 5097 3584 5394 3201 
Q 5691 2819 5691 2113 
L 5691 0 
L 5113 0 
L 5113 2094 
Q 5113 2597 4934 2840 
Q 4756 3084 4391 3084 
Q 3944 3084 3684 2787 
Q 3425 2491 3425 1978 
L 3425 0 
L 2847 0 
L 2847 2094 
Q 2847 2600 2669 2842 
Q 2491 3084 2119 3084 
Q 1678 3084 1418 2786 
Q 1159 2488 1159 1978 
L 1159 0 
L 581 0 
L 581 3500 
L 1159 3500 
L 1159 2956 
Q 1356 3278 1631 3431 
Q 1906 3584 2284 3584 
Q 2666 3584 2933 3390 
Q 3200 3197 3328 2828 
z
" transform="scale(0.015625)"/>
       <path id="DejaVuSans-6f" d="M 1959 3097 
Q 1497 3097 1228 2736 
Q 959 2375 959 1747 
Q 959 1119 1226 758 
Q 1494 397 1959 397 
Q 2419 397 2687 759 
Q 2956 1122 2956 1747 
Q 2956 2369 2687 2733 
Q 2419 3097 1959 3097 
z
M 1959 3584 
Q 2709 3584 3137 3096 
Q 3566 2609 3566 1747 
Q 3566 888 3137 398 
Q 2709 -91 1959 -91 
Q 1206 -91 779 398 
Q 353 888 353 1747 
Q 353 2609 779 3096 
Q 1206 3584 1959 3584 
z
" transform="scale(0.015625)"/>
       <path id="DejaVuSans-79" d="M 2059 -325 
Q 1816 -950 1584 -1140 
Q 1353 -1331 966 -1331 
L 506 -1331 
L 506 -850 
L 844 -850 
Q 1081 -850 1212 -737 
Q 1344 -625 1503 -206 
L 1606 56 
L 191 3500 
L 800 3500 
L 1894 763 
L 2988 3500 
L 3597 3500 
L 2059 -325 
z
" transform="scale(0.015625)"/>
      </defs>
      <use xlink:href="#DejaVuSans-4d"/>
      <use xlink:href="#DejaVuSans-65" x="86.279297"/>
      <use xlink:href="#DejaVuSans-6d" x="147.802734"/>
      <use xlink:href="#DejaVuSans-6f" x="245.214844"/>
      <use xlink:href="#DejaVuSans-72" x="306.396484"/>
      <use xlink:href="#DejaVuSans-79" x="347.509766"/>
     </g>
    </g>
    <g id="patch_120">
     <path d="M 398.908125 54.811875 
L 422.908125 54.811875 
L 422.908125 46.411875 
L 398.908125 46.411875 
z
" style="fill: #ff7f0e; fill-opacity: 0.5; stroke: #000000; stroke-linejoin: miter"/>
    </g>
    <g id="text_17">
     <!-- Control-Flow -->
     <g transform="translate(432.508125 54.811875) scale(0.12 -0.12)">
      <defs>
       <path id="DejaVuSans-43" d="M 4122 4306 
L 4122 3641 
Q 3803 3938 3442 4084 
Q 3081 4231 2675 4231 
Q 1875 4231 1450 3742 
Q 1025 3253 1025 2328 
Q 1025 1406 1450 917 
Q 1875 428 2675 428 
Q 3081 428 3442 575 
Q 3803 722 4122 1019 
L 4122 359 
Q 3791 134 3420 21 
Q 3050 -91 2638 -91 
Q 1578 -91 968 557 
Q 359 1206 359 2328 
Q 359 3453 968 4101 
Q 1578 4750 2638 4750 
Q 3056 4750 3426 4639 
Q 3797 4528 4122 4306 
z
" transform="scale(0.015625)"/>
       <path id="DejaVuSans-6c" d="M 603 4863 
L 1178 4863 
L 1178 0 
L 603 0 
L 603 4863 
z
" transform="scale(0.015625)"/>
       <path id="DejaVuSans-2d" d="M 313 2009 
L 1997 2009 
L 1997 1497 
L 313 1497 
L 313 2009 
z
" transform="scale(0.015625)"/>
       <path id="DejaVuSans-46" d="M 628 4666 
L 3309 4666 
L 3309 4134 
L 1259 4134 
L 1259 2759 
L 3109 2759 
L 3109 2228 
L 1259 2228 
L 1259 0 
L 628 0 
L 628 4666 
z
" transform="scale(0.015625)"/>
       <path id="DejaVuSans-77" d="M 269 3500 
L 844 3500 
L 1563 769 
L 2278 3500 
L 2956 3500 
L 3675 769 
L 4391 3500 
L 4966 3500 
L 4050 0 
L 3372 0 
L 2619 2869 
L 1863 0 
L 1184 0 
L 269 3500 
z
" transform="scale(0.015625)"/>
      </defs>
      <use xlink:href="#DejaVuSans-43"/>
      <use xlink:href="#DejaVuSans-6f" x="69.824219"/>
      <use xlink:href="#DejaVuSans-6e" x="131.005859"/>
      <use xlink:href="#DejaVuSans-74" x="194.384766"/>
      <use xlink:href="#DejaVuSans-72" x="233.59375"/>
      <use xlink:href="#DejaVuSans-6f" x="272.457031"/>
      <use xlink:href="#DejaVuSans-6c" x="333.638672"/>
      <use xlink:href="#DejaVuSans-2d" x="361.421875"/>
      <use xlink:href="#DejaVuSans-46" x="397.505859"/>
      <use xlink:href="#DejaVuSans-6c" x="455.025391"/>
      <use xlink:href="#DejaVuSans-6f" x="482.808594"/>
      <use xlink:href="#DejaVuSans-77" x="543.990234"/>
     </g>
    </g>
    <g id="patch_121">
     <path d="M 398.908125 72.425625 
L 422.908125 72.425625 
L 422.908125 64.025625 
L 398.908125 64.025625 
z
" style="fill: #1f77b4; fill-opacity: 0.5; stroke: #000000; stroke-linejoin: miter"/>
    </g>
    <g id="text_18">
     <!-- Arithmetic -->
     <g transform="translate(432.508125 72.425625) scale(0.12 -0.12)">
      <defs>
       <path id="DejaVuSans-41" d="M 2188 4044 
L 1331 1722 
L 3047 1722 
L 2188 4044 
z
M 1831 4666 
L 2547 4666 
L 4325 0 
L 3669 0 
L 3244 1197 
L 1141 1197 
L 716 0 
L 50 0 
L 1831 4666 
z
" transform="scale(0.015625)"/>
       <path id="DejaVuSans-68" d="M 3513 2113 
L 3513 0 
L 2938 0 
L 2938 2094 
Q 2938 2591 2744 2837 
Q 2550 3084 2163 3084 
Q 1697 3084 1428 2787 
Q 1159 2491 1159 1978 
L 1159 0 
L 581 0 
L 581 4863 
L 1159 4863 
L 1159 2956 
Q 1366 3272 1645 3428 
Q 1925 3584 2291 3584 
Q 2894 3584 3203 3211 
Q 3513 2838 3513 2113 
z
" transform="scale(0.015625)"/>
      </defs>
      <use xlink:href="#DejaVuSans-41"/>
      <use xlink:href="#DejaVuSans-72" x="68.408203"/>
      <use xlink:href="#DejaVuSans-69" x="109.521484"/>
      <use xlink:href="#DejaVuSans-74" x="137.304688"/>
      <use xlink:href="#DejaVuSans-68" x="176.513672"/>
      <use xlink:href="#DejaVuSans-6d" x="239.892578"/>
      <use xlink:href="#DejaVuSans-65" x="337.304688"/>
      <use xlink:href="#DejaVuSans-74" x="398.828125"/>
      <use xlink:href="#DejaVuSans-69" x="438.037109"/>
      <use xlink:href="#DejaVuSans-63" x="465.820312"/>
     </g>
    </g>
   </g>
  </g>
  <g id="axes_2">
   <g id="matplotlib.axis_3">
    <g id="ytick_5">
     <g id="line2d_14">
      <defs>
       <path id="m50d1395e35" d="M 0 0 
L 3.5 0 
" style="stroke: #000000; stroke-width: 0.8"/>
      </defs>
      <g>
       <use xlink:href="#m50d1395e35" x="518.4" y="128.16" style="stroke: #000000; stroke-width: 0.8"/>
      </g>
     </g>
     <g id="text_19">
      <!-- 0 -->
      <g transform="translate(525.4 132.719063) scale(0.12 -0.12)">
       <use xlink:href="#DejaVuSans-30"/>
      </g>
     </g>
    </g>
    <g id="ytick_6">
     <g id="line2d_15">
      <g>
       <use xlink:href="#m50d1395e35" x="518.4" y="92.642272" style="stroke: #000000; stroke-width: 0.8"/>
      </g>
     </g>
     <g id="text_20">
      <!-- 5e-3 -->
      <g transform="translate(525.4 97.201335) scale(0.12 -0.12)">
       <defs>
        <path id="DejaVuSans-35" d="M 691 4666 
L 3169 4666 
L 3169 4134 
L 1269 4134 
L 1269 2991 
Q 1406 3038 1543 3061 
Q 1681 3084 1819 3084 
Q 2600 3084 3056 2656 
Q 3513 2228 3513 1497 
Q 3513 744 3044 326 
Q 2575 -91 1722 -91 
Q 1428 -91 1123 -41 
Q 819 9 494 109 
L 494 744 
Q 775 591 1075 516 
Q 1375 441 1709 441 
Q 2250 441 2565 725 
Q 2881 1009 2881 1497 
Q 2881 1984 2565 2268 
Q 2250 2553 1709 2553 
Q 1456 2553 1204 2497 
Q 953 2441 691 2322 
L 691 4666 
z
" transform="scale(0.015625)"/>
        <path id="DejaVuSans-33" d="M 2597 2516 
Q 3050 2419 3304 2112 
Q 3559 1806 3559 1356 
Q 3559 666 3084 287 
Q 2609 -91 1734 -91 
Q 1441 -91 1130 -33 
Q 819 25 488 141 
L 488 750 
Q 750 597 1062 519 
Q 1375 441 1716 441 
Q 2309 441 2620 675 
Q 2931 909 2931 1356 
Q 2931 1769 2642 2001 
Q 2353 2234 1838 2234 
L 1294 2234 
L 1294 2753 
L 1863 2753 
Q 2328 2753 2575 2939 
Q 2822 3125 2822 3475 
Q 2822 3834 2567 4026 
Q 2313 4219 1838 4219 
Q 1578 4219 1281 4162 
Q 984 4106 628 3988 
L 628 4550 
Q 988 4650 1302 4700 
Q 1616 4750 1894 4750 
Q 2613 4750 3031 4423 
Q 3450 4097 3450 3541 
Q 3450 3153 3228 2886 
Q 3006 2619 2597 2516 
z
" transform="scale(0.015625)"/>
       </defs>
       <use xlink:href="#DejaVuSans-35"/>
       <use xlink:href="#DejaVuSans-65" x="63.623047"/>
       <use xlink:href="#DejaVuSans-2d" x="125.146484"/>
       <use xlink:href="#DejaVuSans-33" x="161.230469"/>
      </g>
     </g>
    </g>
    <g id="ytick_7">
     <g id="line2d_16">
      <g>
       <use xlink:href="#m50d1395e35" x="518.4" y="57.124545" style="stroke: #000000; stroke-width: 0.8"/>
      </g>
     </g>
     <g id="text_21">
      <!-- 1e-2 -->
      <g transform="translate(525.4 61.683607) scale(0.12 -0.12)">
       <use xlink:href="#DejaVuSans-31"/>
       <use xlink:href="#DejaVuSans-65" x="63.623047"/>
       <use xlink:href="#DejaVuSans-2d" x="125.146484"/>
       <use xlink:href="#DejaVuSans-32" x="161.230469"/>
      </g>
     </g>
    </g>
    <g id="ytick_8">
     <g id="line2d_17">
      <g>
       <use xlink:href="#m50d1395e35" x="518.4" y="21.606817" style="stroke: #000000; stroke-width: 0.8"/>
      </g>
     </g>
     <g id="text_22">
      <!-- 1.5e-2 -->
      <g transform="translate(525.4 26.16588) scale(0.12 -0.12)">
       <defs>
        <path id="DejaVuSans-2e" d="M 684 794 
L 1344 794 
L 1344 0 
L 684 0 
L 684 794 
z
" transform="scale(0.015625)"/>
       </defs>
       <use xlink:href="#DejaVuSans-31"/>
       <use xlink:href="#DejaVuSans-2e" x="63.623047"/>
       <use xlink:href="#DejaVuSans-35" x="95.410156"/>
       <use xlink:href="#DejaVuSans-65" x="159.033203"/>
       <use xlink:href="#DejaVuSans-2d" x="220.556641"/>
       <use xlink:href="#DejaVuSans-32" x="256.640625"/>
      </g>
     </g>
    </g>
    <g id="text_23">
     <!-- Kernel Density [%] -->
     <g transform="translate(579.229531 142.540312) rotate(-90) scale(0.15 -0.15)">
      <defs>
       <path id="DejaVuSans-4b" d="M 628 4666 
L 1259 4666 
L 1259 2694 
L 3353 4666 
L 4166 4666 
L 1850 2491 
L 4331 0 
L 3500 0 
L 1259 2247 
L 1259 0 
L 628 0 
L 628 4666 
z
" transform="scale(0.015625)"/>
       <path id="DejaVuSans-44" d="M 1259 4147 
L 1259 519 
L 2022 519 
Q 2988 519 3436 956 
Q 3884 1394 3884 2338 
Q 3884 3275 3436 3711 
Q 2988 4147 2022 4147 
L 1259 4147 
z
M 628 4666 
L 1925 4666 
Q 3281 4666 3915 4102 
Q 4550 3538 4550 2338 
Q 4550 1131 3912 565 
Q 3275 0 1925 0 
L 628 0 
L 628 4666 
z
" transform="scale(0.015625)"/>
      </defs>
      <use xlink:href="#DejaVuSans-4b"/>
      <use xlink:href="#DejaVuSans-65" x="60.576172"/>
      <use xlink:href="#DejaVuSans-72" x="122.099609"/>
      <use xlink:href="#DejaVuSans-6e" x="161.462891"/>
      <use xlink:href="#DejaVuSans-65" x="224.841797"/>
      <use xlink:href="#DejaVuSans-6c" x="286.365234"/>
      <use xlink:href="#DejaVuSans-20" x="314.148438"/>
      <use xlink:href="#DejaVuSans-44" x="345.935547"/>
      <use xlink:href="#DejaVuSans-65" x="422.9375"/>
      <use xlink:href="#DejaVuSans-6e" x="484.460938"/>
      <use xlink:href="#DejaVuSans-73" x="547.839844"/>
      <use xlink:href="#DejaVuSans-69" x="599.939453"/>
      <use xlink:href="#DejaVuSans-74" x="627.722656"/>
      <use xlink:href="#DejaVuSans-79" x="666.931641"/>
      <use xlink:href="#DejaVuSans-20" x="726.111328"/>
      <use xlink:href="#DejaVuSans-5b" x="757.898438"/>
      <use xlink:href="#DejaVuSans-25" x="796.912109"/>
      <use xlink:href="#DejaVuSans-5d" x="891.931641"/>
     </g>
    </g>
   </g>
   <g id="line2d_18">
    <path d="M -1 123.78137 
L 5.982756 122.604022 
L 14.294985 120.910191 
L 22.607214 118.884019 
L 30.919443 116.516237 
L 39.231672 113.811353 
L 47.543901 110.78781 
L 55.85613 107.476207 
L 64.168359 103.915614 
L 72.480588 100.148455 
L 83.56356 94.872583 
L 97.417275 87.968754 
L 111.27099 80.784782 
L 125.124705 73.344472 
L 158.37362 55.215581 
L 166.685849 51.073664 
L 172.227335 48.539876 
L 177.768821 46.244449 
L 183.310307 44.235315 
L 188.851793 42.557404 
L 194.393279 41.250208 
L 199.934765 40.345539 
L 205.476251 39.865637 
L 211.017737 39.821782 
L 216.559223 40.213526 
L 222.100709 41.02859 
L 227.642195 42.24346 
L 233.183681 43.82463 
L 238.725167 45.730403 
L 244.266653 47.913122 
L 249.808139 50.32167 
L 258.120368 54.244597 
L 269.20334 59.80031 
L 288.598541 69.591565 
L 299.681513 74.952803 
L 313.535228 81.375907 
L 332.930429 90.062294 
L 357.867115 100.992258 
L 368.950087 105.646094 
L 377.262316 108.957808 
L 385.574545 112.056224 
L 393.886774 114.893083 
L 402.199003 117.431531 
L 410.511232 119.649535 
L 418.823461 121.54101 
L 427.13569 123.114874 
L 435.447919 124.392538 
L 443.760148 125.404463 
L 452.072377 126.186434 
L 460.384606 126.776079 
L 471.467578 127.325931 
L 485.321293 127.740197 
L 490.862779 127.846302 
L 490.862779 127.846302 
" clip-path="url(#p0c3ccd1482)" style="fill: none; stroke: #2ca02c; stroke-width: 1.5; stroke-linecap: square"/>
   </g>
   <g id="line2d_19">
    <path d="M -1 100.861973 
L 29.85915 94.686798 
L 43.318211 92.141739 
L 56.777272 89.769729 
L 70.236333 87.628286 
L 83.695395 85.771754 
L 97.154456 84.249036 
L 110.613517 83.101449 
L 124.072578 82.360836 
L 137.53164 82.048049 
L 150.990701 82.171894 
L 164.449762 82.728603 
L 177.908823 83.701885 
L 191.367885 85.06353 
L 204.826946 86.774551 
L 218.286007 88.786792 
L 231.745068 91.044889 
L 251.93366 94.76023 
L 312.499436 106.31934 
L 325.958497 108.615337 
L 339.417558 110.717988 
L 352.87662 112.598706 
L 366.335681 114.237551 
L 379.794742 115.623114 
L 393.253803 116.75212 
L 406.712865 117.628835 
L 420.171926 118.264291 
L 433.630987 118.675423 
L 447.090048 118.884117 
L 460.54911 118.916234 
L 480.737701 118.696998 
L 500.926293 118.250558 
L 577 116.308484 
L 577 116.308484 
" clip-path="url(#p0c3ccd1482)" style="fill: none; stroke: #ff7f0e; stroke-width: 1.5; stroke-linecap: square"/>
   </g>
   <g id="line2d_20">
    <path d="M -1 94.52454 
L 0.414973 93.337169 
L 7.235504 87.068734 
L 14.056034 80.342959 
L 20.876565 73.280343 
L 34.517625 58.772982 
L 41.338156 51.697866 
L 48.158686 45.008091 
L 54.979217 38.902649 
L 61.799747 33.566443 
L 68.620278 29.159449 
L 75.440808 25.80735 
L 82.261339 23.594464 
L 89.081869 22.559597 
L 95.902399 22.695131 
L 102.72293 23.949362 
L 109.54346 26.231737 
L 116.363991 29.420394 
L 123.184521 33.371218 
L 130.005052 37.927516 
L 136.825582 42.929453 
L 143.646113 48.222497 
L 164.107704 64.513782 
L 170.928234 69.732791 
L 177.748765 74.723868 
L 184.569295 79.443189 
L 191.389826 83.863465 
L 198.210356 87.971009 
L 205.030887 91.762764 
L 211.851417 95.243559 
L 218.671948 98.423747 
L 225.492478 101.317316 
L 232.313009 103.940461 
L 239.133539 106.310564 
L 245.954069 108.445492 
L 252.7746 110.363126 
L 259.59513 112.081024 
L 266.415661 113.616163 
L 273.236191 114.98473 
L 280.056722 116.201935 
L 286.877252 117.281869 
L 293.697783 118.237421 
L 307.338844 119.820897 
L 320.979904 121.032908 
L 334.620965 121.941728 
L 348.262026 122.610524 
L 368.723618 123.30059 
L 402.82627 124.087585 
L 457.390513 125.388692 
L 532.416348 127.255154 
L 559.69847 127.688824 
L 577 127.833301 
L 577 127.833301 
" clip-path="url(#p0c3ccd1482)" style="fill: none; stroke: #1f77b4; stroke-width: 1.5; stroke-linecap: square"/>
   </g>
   <g id="patch_122">
    <path d="M 72 128.16 
L 72 17.28 
" style="fill: none; stroke: #000000; stroke-width: 0.8; stroke-linejoin: miter; stroke-linecap: square"/>
   </g>
   <g id="patch_123">
    <path d="M 518.4 128.16 
L 518.4 17.28 
" style="fill: none; stroke: #000000; stroke-width: 0.8; stroke-linejoin: miter; stroke-linecap: square"/>
   </g>
   <g id="patch_124">
    <path d="M 72 128.16 
L 518.4 128.16 
" style="fill: none; stroke: #000000; stroke-width: 0.8; stroke-linejoin: miter; stroke-linecap: square"/>
   </g>
   <g id="patch_125">
    <path d="M 72 17.28 
L 518.4 17.28 
" style="fill: none; stroke: #000000; stroke-width: 0.8; stroke-linejoin: miter; stroke-linecap: square"/>
   </g>
  </g>
 </g>
 <defs>
  <clipPath id="p0c3ccd1482">
   <rect x="72" y="17.28" width="446.4" height="110.88"/>
  </clipPath>
 </defs>
</svg>
